<?xml version="1.0" standalone="no"?>
<!DOCTYPE svg PUBLIC "-//W3C//DTD SVG 20010904//EN"
 "http://www.w3.org/TR/2001/REC-SVG-20010904/DTD/svg10.dtd">
<svg version="1.0" xmlns="http://www.w3.org/2000/svg"
 width="305.000000pt" height="305.000000pt" viewBox="0 0 305.000000 305.000000"
 preserveAspectRatio="xMidYMid meet">

<g transform="translate(0.000000,305.000000) scale(0.100000,-0.100000)"
fill="#000000" stroke="none">
<path d="M1834 3011 c5 -8 -29 -11 -116 -11 -138 0 -267 -13 -345 -36 -65 -19
-195 -100 -378 -237 l-142 -106 -7 -108 c-3 -59 -14 -169 -24 -243 l-17 -136
-40 -35 c-95 -83 -185 -149 -248 -184 -38 -21 -74 -47 -82 -59 -20 -31 -28
-91 -16 -114 31 -58 221 -118 350 -109 l74 4 -6 -106 c-4 -58 -9 -125 -13
-148 -4 -24 -3 -43 2 -43 12 0 83 232 90 297 6 50 7 51 31 42 13 -5 36 -9 50
-9 25 0 26 -1 20 -50 -5 -45 -1 -60 44 -157 28 -60 62 -137 76 -173 13 -36 36
-89 49 -118 13 -29 24 -55 24 -57 0 -3 21 -35 47 -73 26 -37 59 -89 73 -115
23 -44 31 -50 85 -69 33 -11 63 -23 67 -26 4 -4 -13 -90 -38 -191 -24 -101
-44 -191 -44 -200 0 -15 70 -81 86 -81 4 0 25 -15 48 -33 53 -42 126 -89 126
-81 0 3 -8 27 -17 53 -13 36 -38 65 -116 135 -88 80 -97 91 -83 104 14 14 23
10 88 -33 164 -107 159 -102 258 -297 50 -98 90 -180 90 -183 0 -3 0 -9 0 -15
0 -6 40 -10 101 -10 112 0 117 6 38 56 -27 16 -47 43 -73 97 -34 69 -39 74
-86 91 -28 10 -55 28 -62 40 -29 55 -149 173 -233 229 -49 33 -92 61 -94 63
-2 2 4 23 13 47 9 25 16 72 16 114 0 40 4 74 9 77 5 3 23 1 40 -5 29 -10 35
-8 79 27 67 54 339 331 438 445 77 90 111 148 164 278 11 27 26 39 77 62 60
27 63 30 63 63 0 38 16 58 23 29 3 -14 7 -11 17 12 l14 30 3 -35 c8 -85 15
-88 33 -10 24 106 50 190 59 190 4 0 16 -26 26 -57 11 -32 22 -62 26 -66 4 -5
10 29 14 75 4 45 10 87 12 92 3 4 23 -23 45 -60 l39 -69 -6 85 c-7 97 -1 96
41 -3 l29 -69 3 52 c3 48 -4 66 -67 196 -38 79 -66 144 -60 144 5 0 28 -9 49
-20 39 -20 52 -16 28 8 -21 21 3 13 54 -19 28 -16 52 -28 55 -26 2 3 -37 42
-87 88 -49 46 -90 87 -90 91 0 4 21 -2 46 -13 26 -11 49 -18 51 -16 2 3 -23
26 -57 53 l-60 49 123 5 122 5 -65 22 c-36 13 -93 26 -128 29 -34 4 -64 10
-67 13 -2 4 5 65 16 135 11 71 18 133 16 139 -1 5 -27 -23 -57 -64 -65 -88
-83 -109 -90 -109 -3 0 -7 26 -8 57 -8 135 -39 208 -127 293 -40 39 -41 36
-20 -56 9 -36 14 -69 11 -71 -2 -3 -14 13 -25 35 -29 57 -41 61 -41 13 0 -23
-3 -41 -7 -40 -5 0 -22 19 -38 42 -46 62 -137 105 -256 121 -52 7 -105 18
-118 25 -14 8 -21 9 -17 2z m-48 -550 c-3 -5 -18 -12 -33 -16 -15 -3 -42 -13
-61 -21 -29 -12 -32 -16 -22 -29 10 -12 6 -18 -24 -36 -38 -22 -40 -42 -3 -35
12 3 74 8 137 11 l115 6 -70 -36 c-38 -20 -74 -40 -79 -46 -6 -5 -18 -9 -28
-9 -10 0 -18 -4 -18 -10 0 -13 2 -13 103 9 48 10 85 15 82 11 -9 -15 8 -17 72
-11 34 4 60 4 57 0 -2 -4 -35 -17 -74 -30 -38 -12 -70 -26 -70 -30 0 -4 37 -5
83 -3 l82 4 -50 -24 c-132 -62 -187 -86 -198 -86 -6 0 -27 20 -44 43 -18 23
-54 65 -80 94 l-48 52 -125 6 c-99 4 -130 2 -145 -9 -17 -13 -12 -15 60 -21
74 -7 84 -11 130 -48 45 -37 166 -147 162 -147 -2 0 -38 18 -82 40 -62 31 -91
40 -130 40 -98 0 -93 -36 5 -42 l55 -3 1 -52 c1 -29 -2 -53 -7 -53 -6 0 -32
20 -59 46 -64 60 -75 39 -14 -26 32 -34 72 -62 120 -85 41 -19 76 -35 79 -35
3 0 19 -10 34 -21 27 -20 51 -19 51 1 0 5 -19 19 -41 31 l-42 21 29 18 c36 21
42 18 50 -25 5 -28 11 -35 30 -35 21 0 24 5 24 34 0 19 -9 46 -22 62 -21 28
-20 28 13 -3 41 -39 50 -40 67 -12 8 12 9 18 3 14 -6 -3 -11 2 -11 12 0 10 -7
29 -16 41 -9 13 -14 25 -12 27 5 5 262 33 266 29 2 -1 -14 -12 -37 -24 -53
-26 -52 -32 2 -16 23 7 53 16 67 20 23 6 23 5 6 -6 -10 -7 -35 -26 -55 -42
-31 -24 -32 -27 -11 -21 14 4 63 24 110 45 145 65 180 79 180 73 0 -3 -17 -31
-38 -62 -92 -136 -99 -162 -27 -96 21 20 40 34 42 31 5 -5 -44 -95 -66 -120
-17 -21 -19 -21 49 0 19 6 20 2 20 -72 0 -44 -4 -84 -8 -90 -8 -12 -95 -64
-107 -64 -5 0 -6 2 -3 6 3 3 2 20 -2 39 l-8 34 44 7 c47 7 47 8 38 67 l-7 37
-118 0 -118 0 -36 -37 c-43 -46 -45 -53 -49 -178 -2 -55 -4 -114 -5 -132 -1
-30 -4 -33 -56 -48 -43 -13 -55 -21 -55 -36 0 -31 24 -33 91 -7 l61 23 -4 122
-4 123 26 -17 c14 -9 41 -27 60 -40 19 -12 44 -23 56 -23 25 0 38 22 22 38
-18 18 24 33 47 16 19 -14 19 -17 -28 -107 -59 -115 -169 -263 -287 -387 -9
-9 -47 -41 -86 -72 -39 -31 -102 -90 -141 -132 -68 -74 -71 -76 -117 -76 -66
0 -102 19 -168 86 -45 47 -75 95 -149 239 -51 99 -112 230 -135 290 -40 99
-44 119 -44 195 l-1 85 -22 -27 c-29 -36 -53 -35 -71 0 l-14 28 36 -4 37 -4
-22 24 c-29 31 -29 48 0 48 41 0 59 23 65 79 5 52 4 52 -21 46 -20 -5 -26 -2
-32 14 -10 32 11 62 40 55 l24 -6 -14 59 c-8 32 -14 61 -15 66 0 4 -6 7 -14 7
-7 0 -24 9 -38 19 l-25 20 -33 -35 c-38 -41 -33 -54 14 -31 32 15 35 15 50 -2
29 -32 13 -71 -30 -71 -33 0 -48 -52 -34 -115 8 -38 8 -50 -2 -56 -7 -4 -13
-7 -14 -6 -7 8 -34 235 -30 252 3 12 21 33 41 46 19 13 35 27 35 30 0 10 61
-6 87 -21 11 -7 32 -41 46 -74 26 -64 46 -78 85 -57 15 8 22 30 32 102 7 50
18 95 24 100 6 5 27 19 46 32 24 16 38 35 49 69 14 45 16 48 95 82 62 28 102
38 171 44 129 12 207 13 201 3z m-167 -417 c16 -12 21 -23 17 -39 -7 -29 15
-49 46 -40 21 7 22 6 7 -9 -13 -15 -20 -15 -55 -4 -30 10 -40 19 -42 38 -2 14
-8 29 -13 35 -13 13 -11 35 4 35 7 0 23 -7 36 -16z m116 -24 c10 -11 16 -20
13 -20 -3 0 -13 9 -23 20 -10 11 -16 20 -13 20 3 0 13 -9 23 -20z m305 -340
l0 -39 -30 17 c-44 25 -40 62 7 62 20 0 23 -5 23 -40z m69 6 c-3 -27 2 -36 22
-36 11 0 17 -4 14 -10 -9 -15 -51 -12 -65 5 -7 8 -9 15 -4 15 5 0 1 7 -10 15
-10 7 -15 18 -12 23 8 13 57 2 55 -12z"/>
<path d="M1522 1508 c-18 -18 -15 -23 28 -52 24 -16 38 -31 34 -38 -4 -6 -3
-8 3 -5 23 15 76 -24 138 -100 21 -26 34 -33 61 -33 30 0 34 3 34 25 0 20 -5
25 -25 25 -28 0 -50 12 -135 75 -60 44 -110 92 -110 106 0 13 -14 11 -28 -3z"/>
<path d="M1563 1254 c-19 -8 2 -41 40 -64 39 -24 80 -26 98 -4 11 14 9 19 -11
34 -13 10 -36 21 -50 24 -14 3 -34 8 -45 10 -11 3 -26 3 -32 0z"/>
<path d="M330 919 c-87 -13 -191 -28 -242 -34 -25 -3 -55 -14 -67 -24 -21 -18
-21 -24 -21 -440 l0 -421 630 0 c413 0 630 3 630 10 0 6 -4 10 -9 10 -14 0
-185 166 -543 525 -296 297 -309 311 -306 344 4 40 0 41 -72 30z"/>
<path d="M480 896 c0 -2 16 -16 35 -30 23 -18 35 -22 35 -14 0 8 -13 21 -29
31 -29 17 -41 21 -41 13z"/>
<path d="M674 732 c4 -6 39 -38 79 -71 40 -32 104 -90 142 -127 39 -38 116
-111 172 -163 56 -52 99 -99 96 -104 -3 -6 -1 -7 4 -4 6 4 16 0 23 -8 7 -9 32
-30 54 -48 37 -28 35 -24 -21 38 -146 166 -208 222 -475 434 -44 35 -78 59
-74 53z"/>
</g>
</svg>
